<svg version="1.0" xmlns="http://www.w3.org/2000/svg"
 width="100.000000pt" height="100.000000pt" viewBox="0 0 100.000000 100.000000"
 preserveAspectRatio="xMidYMid meet">
<g transform="translate(0.000000,100.000000) scale(0.009766,-0.009766)"
fill="#000000" stroke="none">
<path d="M2877 9853 c-2 -1 -43 -4 -93 -7 -50 -2 -109 -8 -130 -12 -21 -4 -50
-8 -64 -10 -14 -1 -26 -3 -27 -4 -2 -1 -16 -4 -33 -5 -16 -1 -32 -4 -35 -5 -3
-1 -14 -4 -25 -5 -11 -1 -22 -4 -25 -5 -3 -1 -9 -4 -15 -5 -5 -1 -11 -3 -12
-5 -3 -2 -20 -6 -58 -13 -14 -3 -26 -6 -27 -8 -2 -1 -7 -3 -13 -4 -5 -1 -12
-4 -15 -5 -3 -1 -9 -4 -15 -5 -5 -1 -12 -4 -15 -5 -3 -1 -9 -3 -14 -4 -5 0
-13 -4 -17 -8 -4 -5 -13 -8 -20 -8 -7 0 -25 -5 -41 -12 -15 -6 -31 -12 -35
-13 -5 -2 -10 -4 -13 -5 -3 -1 -9 -3 -15 -4 -5 0 -15 -7 -22 -13 -6 -7 -19
-13 -28 -13 -9 0 -21 -5 -28 -12 -7 -7 -12 -8 -12 -3 0 5 -11 -2 -25 -15 -14
-13 -25 -20 -25 -16 0 4 -14 -3 -32 -15 -17 -13 -28 -17 -23 -9 5 7 -8 0 -28
-16 -20 -16 -41 -29 -46 -29 -11 0 -300 -227 -301 -236 0 -4 -25 -32 -55 -62
-105 -109 -241 -309 -323 -477 -182 -376 -262 -792 -257 -1331 2 -124 5 -235
8 -245 3 -10 9 -59 12 -109 5 -78 42 -340 60 -430 4 -16 8 -39 10 -50 2 -11
11 -51 20 -90 9 -38 17 -80 18 -92 1 -12 5 -25 9 -29 17 -17 6 -51 -29 -91
-21 -23 -49 -56 -63 -73 -14 -17 -30 -36 -35 -43 -6 -7 -26 -32 -45 -57 -19
-25 -39 -50 -45 -56 -5 -6 -17 -22 -25 -34 -8 -12 -20 -28 -26 -34 -6 -6 -16
-22 -23 -35 -11 -20 -10 -25 9 -39 12 -10 34 -27 49 -39 15 -12 31 -19 37 -15
5 4 36 43 68 87 33 44 62 82 66 85 3 3 28 33 54 68 44 56 50 60 61 45 7 -10
16 -34 19 -53 4 -19 11 -44 16 -55 8 -19 22 -69 25 -90 2 -10 4 -17 32 -90 9
-22 16 -47 17 -55 1 -8 7 -25 13 -36 7 -12 10 -24 6 -27 -3 -4 -1 -12 5 -19 5
-7 23 -51 38 -98 15 -47 31 -89 36 -95 4 -5 8 -15 8 -22 0 -12 13 -45 61 -151
10 -23 19 -49 19 -57 0 -8 5 -15 11 -15 5 0 8 -4 5 -9 -3 -5 7 -35 23 -67 52
-105 88 -189 91 -212 1 -4 9 -15 17 -24 9 -10 12 -18 8 -18 -4 0 -1 -8 8 -18
10 -10 15 -21 12 -24 -3 -3 1 -11 10 -18 8 -7 15 -18 15 -24 0 -7 22 -54 50
-106 27 -52 50 -100 50 -107 0 -7 5 -13 10 -13 6 0 10 -7 10 -15 0 -8 14 -37
30 -65 17 -28 30 -55 30 -59 0 -5 7 -14 15 -21 9 -7 13 -15 11 -18 -3 -2 5
-19 17 -36 29 -41 46 -68 54 -86 3 -8 15 -27 25 -43 11 -15 17 -27 13 -27 -3
0 4 -15 17 -32 31 -44 46 -68 60 -98 7 -14 23 -39 35 -56 13 -17 23 -35 23
-40 0 -5 11 -22 26 -37 14 -15 23 -31 20 -35 -3 -5 11 -25 30 -46 19 -20 34
-42 34 -48 0 -5 13 -27 28 -47 16 -20 39 -55 52 -78 13 -24 27 -43 32 -43 4 0
8 -6 8 -14 0 -8 7 -17 16 -20 8 -3 13 -10 10 -15 -4 -5 -3 -11 1 -13 5 -1 24
-25 43 -53 19 -27 39 -54 46 -60 6 -5 28 -36 48 -68 20 -33 46 -69 57 -80 11
-12 28 -34 37 -49 9 -16 20 -28 24 -28 4 0 8 -4 8 -10 0 -5 8 -18 18 -29 17
-19 53 -63 94 -116 12 -16 25 -32 28 -35 3 -3 16 -18 28 -35 37 -48 76 -96 92
-114 8 -9 27 -33 43 -54 15 -20 47 -56 70 -80 23 -24 56 -61 72 -82 17 -21 50
-60 75 -86 25 -26 83 -89 130 -139 67 -73 176 -183 273 -277 4 -5 31 -31 60
-60 91 -90 163 -157 207 -193 24 -19 65 -56 92 -82 26 -26 48 -45 48 -43 0 2
18 -13 39 -34 21 -21 54 -49 72 -62 19 -13 45 -34 59 -47 14 -12 40 -32 57
-43 18 -11 33 -25 33 -29 0 -5 27 -28 60 -50 33 -22 60 -45 60 -50 0 -6 3 -9
8 -8 4 2 16 -5 27 -14 11 -9 30 -25 43 -35 16 -13 23 -29 24 -56 2 -47 15 -58
58 -48 40 8 70 4 70 -10 0 -6 5 -7 10 -4 6 3 13 -1 16 -9 3 -9 10 -13 15 -10
5 3 9 1 9 -4 0 -10 245 -175 256 -172 4 1 11 -5 16 -14 5 -9 13 -14 19 -11 5
4 9 1 9 -6 0 -7 3 -10 6 -6 4 3 46 -21 95 -54 48 -32 93 -59 99 -59 5 0 10 -5
10 -11 0 -5 5 -7 10 -4 6 3 13 0 16 -8 2 -7 11 -14 18 -14 7 0 33 -14 59 -31
25 -18 52 -32 59 -32 7 0 22 -6 33 -14 31 -22 155 -86 155 -80 0 3 20 -9 45
-26 25 -17 45 -28 45 -25 0 4 16 -3 35 -15 19 -12 35 -18 35 -15 0 4 11 0 25
-9 13 -9 29 -16 36 -16 6 0 24 -9 40 -21 16 -11 29 -17 29 -14 0 4 12 0 26
-10 14 -9 28 -14 31 -11 3 3 19 -4 34 -15 16 -11 29 -17 29 -14 0 4 11 0 25
-9 14 -9 25 -14 25 -10 0 3 11 -1 25 -10 14 -9 25 -14 25 -11 0 3 13 -1 30
-10 16 -8 32 -15 35 -15 6 -1 28 -7 53 -17 9 -3 22 -7 27 -8 6 0 18 -4 28 -8
48 -19 60 -23 95 -31 12 -3 28 -8 35 -13 6 -4 19 -9 27 -11 18 -3 43 -10 50
-12 3 -1 10 -3 15 -5 6 -1 12 -3 15 -4 7 -4 30 -9 65 -16 17 -3 37 -8 45 -12
18 -7 24 -9 70 -17 42 -8 65 -14 65 -16 0 -1 14 -3 30 -5 17 -1 30 -3 30 -4 0
-3 18 -7 70 -15 22 -4 54 -9 70 -12 17 -3 44 -7 60 -9 114 -13 156 -17 200
-19 28 -1 55 -4 60 -6 21 -11 374 1 458 14 20 3 54 9 75 12 20 3 48 7 62 9 14
2 26 4 28 5 1 1 11 4 22 5 11 1 21 3 23 4 1 2 13 5 27 8 39 7 55 11 55 13 0 1
7 3 15 5 45 9 197 59 209 69 8 6 16 10 18 8 2 -1 18 4 36 12 48 21 71 29 78
28 4 -1 15 8 24 18 10 11 26 20 35 20 10 0 23 7 30 15 7 9 15 13 18 11 3 -3
22 8 42 24 20 16 39 27 42 25 6 -6 277 213 312 253 17 20 46 52 65 71 18 20
47 55 64 79 17 23 34 42 39 42 4 0 8 6 8 14 0 7 11 25 25 40 13 14 24 27 23
29 -1 1 23 43 53 92 214 349 338 857 339 1395 0 199 -20 489 -44 630 -2 14 -7
50 -10 80 -4 30 -10 64 -13 75 -3 11 -8 31 -9 45 -7 57 -35 197 -44 218 -6 13
-8 28 -4 33 3 6 1 15 -4 22 -6 7 -13 35 -17 62 -4 28 -11 55 -15 60 -5 6 -11
31 -15 57 -7 44 -5 49 26 81 19 19 41 44 49 56 8 13 47 66 85 119 39 54 88
124 110 157 22 33 43 62 46 65 3 3 12 16 19 29 11 22 10 27 -11 42 -13 10 -36
27 -50 38 -14 11 -30 16 -36 13 -6 -4 -39 -50 -74 -102 -34 -52 -68 -100 -73
-106 -6 -6 -18 -22 -26 -34 -8 -12 -38 -53 -67 -92 -47 -64 -52 -68 -59 -46
-4 13 -7 28 -6 35 2 6 -2 14 -8 18 -5 3 -10 15 -10 26 0 10 -4 27 -9 37 -8 14
-19 41 -26 62 -1 3 -5 22 -9 43 -5 20 -12 40 -17 43 -5 3 -9 16 -9 30 0 13 -4
24 -9 24 -7 0 -19 36 -25 75 -1 6 -9 27 -19 49 -9 21 -17 42 -17 45 0 4 -9 26
-20 49 -11 22 -20 47 -20 55 0 7 -5 18 -12 25 -7 7 -8 12 -3 12 4 0 1 8 -8 18
-8 9 -16 19 -16 22 0 3 -5 19 -11 35 -17 46 -18 50 -16 56 0 4 -7 16 -17 26
-9 11 -15 22 -12 25 3 3 -3 22 -15 42 -11 20 -20 43 -20 51 0 8 -4 15 -10 15
-5 0 -10 6 -10 14 0 8 -13 40 -30 71 -16 31 -30 63 -30 71 0 8 -4 14 -10 14
-5 0 -10 6 -10 13 0 7 -14 39 -30 70 -17 32 -30 64 -30 72 0 7 -7 15 -15 19
-8 3 -12 12 -9 21 4 8 -1 17 -10 21 -9 3 -16 12 -16 20 0 7 -13 35 -28 61 -15
26 -36 64 -45 83 -10 19 -31 56 -47 82 -15 25 -26 49 -23 52 3 3 -6 18 -20 32
-15 15 -27 35 -27 44 0 10 -7 20 -15 24 -8 3 -15 12 -15 21 0 9 -9 25 -20 37
-10 12 -17 24 -15 28 3 4 -7 20 -20 36 -14 16 -25 33 -25 37 0 5 -12 24 -26
43 -15 19 -22 34 -18 34 5 0 5 4 -1 8 -13 9 -46 57 -75 110 -13 23 -27 42 -31
42 -4 0 -9 10 -13 23 -3 12 -14 32 -24 43 -11 11 -38 50 -62 87 -23 37 -46 67
-50 67 -5 0 -14 16 -20 35 -6 19 -15 35 -18 35 -4 0 -20 20 -37 45 -16 24 -33
45 -37 45 -5 0 -8 7 -8 15 0 8 -4 15 -10 15 -5 0 -10 7 -10 15 0 8 -3 15 -7
15 -5 0 -19 18 -33 40 -13 22 -28 40 -32 40 -4 0 -8 4 -8 9 0 9 -24 41 -62 82
-10 10 -16 19 -13 19 3 0 -3 8 -12 18 -25 26 -54 61 -88 107 -17 22 -35 45
-41 50 -6 6 -22 26 -35 45 -13 19 -31 42 -39 51 -27 28 -60 69 -60 74 0 3 -8
13 -17 24 -55 59 -123 134 -156 174 -22 26 -65 73 -97 107 -31 33 -56 60 -54
60 2 0 -255 266 -283 293 -4 4 -44 42 -88 84 -44 42 -90 82 -102 90 -13 9 -20
19 -17 24 3 5 1 9 -5 9 -5 0 -35 25 -68 56 -32 31 -66 62 -77 70 -26 18 -100
81 -152 131 -24 23 -44 39 -44 35 0 -4 -6 0 -13 8 -7 9 -28 27 -47 40 -19 13
-40 32 -47 41 -7 9 -35 31 -63 49 -27 18 -50 37 -50 43 0 6 -3 8 -6 5 -3 -3
-15 4 -28 16 -12 11 -35 30 -51 42 l-28 20 29 1 c92 2 85 -3 78 56 -3 28 -6
60 -6 70 1 18 -31 18 -163 1 -97 -12 -89 -15 -312 134 -117 78 -217 142 -223
142 -5 0 -10 5 -10 10 0 6 -4 9 -8 8 -5 -2 -40 17 -79 41 -39 24 -75 44 -79
44 -5 0 -36 18 -69 40 -33 23 -61 40 -62 39 -10 -8 -23 0 -17 11 4 6 4 9 -1 5
-4 -4 -22 0 -39 9 -17 10 -34 16 -38 15 -5 -1 -8 3 -8 10 0 6 -3 8 -6 5 -4 -4
-19 2 -34 13 -16 11 -33 20 -39 20 -6 0 -11 5 -11 12 0 6 -3 8 -7 5 -3 -4 -21
3 -40 14 -18 11 -33 18 -33 14 0 -4 -16 3 -35 15 -19 12 -35 19 -35 15 0 -3
-13 3 -30 15 -16 12 -30 18 -30 15 0 -4 -12 0 -26 10 -14 9 -35 18 -46 20 -11
3 -28 11 -38 20 -9 8 -19 12 -22 9 -4 -3 -19 3 -34 13 -16 10 -29 17 -31 16
-5 -4 -36 7 -65 23 -16 8 -28 12 -28 8 0 -3 -11 1 -25 10 -14 9 -25 14 -25 10
0 -3 -12 1 -26 11 -17 11 -24 12 -18 4 5 -9 -2 -8 -19 4 -15 9 -27 15 -27 12
0 -3 -10 0 -22 7 -24 13 -27 14 -72 23 -16 3 -37 10 -48 16 -10 5 -18 7 -18 4
0 -3 -10 0 -22 7 -13 7 -27 13 -33 14 -5 0 -12 2 -15 3 -3 1 -16 4 -30 7 -14
2 -32 7 -40 11 -8 3 -24 6 -35 7 -11 1 -25 4 -30 8 -6 3 -30 9 -55 13 -25 4
-49 10 -55 13 -5 4 -21 8 -35 8 -14 1 -25 3 -25 4 0 2 -19 6 -67 14 -21 3 -55
9 -75 12 -46 8 -68 12 -68 14 0 1 -25 3 -55 4 -30 2 -82 7 -115 11 -55 7 -353
14 -358 8z m403 -147 c30 -2 55 -5 55 -6 0 -2 14 -4 30 -5 17 -2 32 -4 35 -5
3 -1 19 -3 35 -5 17 -1 32 -3 35 -5 3 -1 19 -4 35 -5 17 -2 30 -4 30 -5 0 -2
21 -7 75 -15 25 -4 50 -8 55 -9 6 -1 15 -4 20 -8 6 -3 31 -9 55 -13 25 -4 50
-11 56 -16 6 -5 14 -6 17 -3 3 3 12 2 19 -2 7 -5 18 -9 23 -11 6 -1 21 -5 35
-8 14 -3 32 -8 40 -10 8 -2 15 -4 15 -5 0 -2 13 -5 51 -13 11 -3 36 -12 55
-19 18 -8 37 -16 41 -17 19 -4 37 -10 83 -27 28 -10 52 -19 55 -20 6 -1 35
-12 65 -23 11 -5 22 -8 25 -8 3 1 19 -6 35 -15 37 -20 67 -32 78 -30 4 1 7 -3
7 -10 0 -6 3 -8 7 -5 3 4 17 0 30 -8 13 -9 23 -13 23 -9 0 3 11 -1 25 -10 13
-9 29 -16 36 -16 6 0 24 -9 41 -21 16 -12 32 -18 35 -15 3 3 11 2 17 -3 18
-15 146 -80 146 -75 0 3 19 -8 43 -23 23 -15 48 -29 56 -31 7 -2 33 -16 57
-32 23 -17 49 -30 56 -30 7 0 37 -16 65 -35 29 -19 57 -35 63 -35 5 0 10 -4
10 -9 0 -5 9 -11 20 -14 27 -7 362 -228 356 -235 -3 -2 -18 -7 -33 -9 -92 -14
-106 -21 -99 -46 4 -12 9 -41 12 -64 7 -41 7 -42 43 -37 20 3 52 7 71 10 19 2
46 6 60 9 40 8 83 16 105 19 19 3 106 -48 113 -66 2 -4 10 -8 18 -8 8 0 14 -4
14 -10 0 -5 26 -27 58 -48 31 -22 71 -53 89 -68 61 -56 93 -82 93 -76 0 3 9
-4 20 -15 11 -12 33 -30 50 -39 16 -10 30 -23 30 -29 0 -6 12 -18 28 -27 15
-9 50 -38 79 -65 28 -26 73 -66 99 -88 82 -70 299 -280 452 -437 143 -148 211
-220 240 -256 18 -21 53 -61 79 -89 27 -27 71 -79 98 -114 28 -34 65 -78 83
-96 18 -18 30 -33 27 -33 -2 0 9 -13 25 -29 17 -15 30 -31 30 -35 0 -3 8 -14
18 -25 17 -19 53 -63 94 -116 12 -16 25 -32 28 -35 4 -3 26 -34 50 -70 24 -36
46 -67 49 -70 4 -3 19 -23 36 -45 16 -22 32 -42 36 -45 3 -3 27 -36 51 -75 25
-38 57 -83 72 -100 14 -16 26 -38 26 -47 0 -10 4 -18 9 -18 5 0 28 -30 51 -67
24 -37 51 -76 61 -87 11 -11 19 -28 19 -38 0 -10 4 -18 10 -18 5 0 24 -24 40
-52 17 -29 49 -82 70 -117 22 -34 40 -65 40 -67 0 -4 47 -76 61 -92 6 -7 9
-16 5 -19 -3 -3 5 -20 17 -37 38 -54 91 -146 89 -156 0 -3 5 -12 12 -20 21
-24 76 -130 76 -146 0 -8 5 -14 10 -14 6 0 10 -9 10 -19 0 -11 5 -23 10 -26 9
-5 170 -328 170 -339 0 -2 10 -25 22 -52 12 -27 23 -56 24 -64 2 -8 8 -16 14
-18 5 -2 8 -8 5 -12 -3 -5 4 -25 15 -45 11 -19 20 -40 20 -45 0 -6 9 -30 20
-55 11 -25 29 -66 41 -91 11 -25 18 -48 15 -51 -2 -3 4 -20 15 -39 10 -19 19
-41 19 -48 0 -7 7 -26 15 -43 8 -16 16 -38 18 -49 1 -10 6 -24 10 -30 11 -19
61 -178 59 -191 -2 -6 2 -14 8 -18 5 -3 10 -15 10 -26 0 -10 4 -27 9 -37 12
-24 38 -111 46 -152 3 -19 10 -44 15 -55 10 -22 20 -67 51 -215 10 -52 21
-104 24 -115 19 -86 28 -138 50 -288 14 -95 27 -212 30 -262 3 -49 8 -100 11
-113 7 -32 6 -352 -1 -487 -5 -98 -17 -198 -45 -360 -13 -75 -48 -220 -75
-306 -27 -85 -101 -277 -114 -293 -5 -6 -27 -47 -51 -91 -75 -142 -211 -323
-309 -410 -18 -16 -54 -50 -80 -75 -51 -50 -111 -95 -111 -85 0 4 -22 -12 -49
-34 -27 -23 -55 -41 -64 -41 -8 0 -20 -7 -27 -16 -13 -14 -68 -42 -81 -40 -4
1 -15 -6 -25 -15 -19 -16 -68 -36 -70 -28 -1 2 -10 -4 -20 -13 -11 -9 -23 -17
-29 -18 -5 -2 -20 -6 -32 -11 -26 -10 -129 -40 -152 -44 -9 -2 -17 -4 -18 -5
-2 -2 -7 -4 -13 -5 -5 -1 -12 -4 -15 -5 -3 -1 -14 -4 -25 -5 -11 -1 -22 -4
-25 -5 -3 -1 -9 -4 -15 -5 -5 -1 -11 -4 -12 -5 -2 -1 -14 -3 -28 -5 -29 -3
-83 -13 -125 -22 -16 -4 -57 -7 -90 -7 -33 -1 -64 -4 -70 -7 -16 -10 -500 2
-500 12 0 1 -12 3 -100 13 -22 2 -40 5 -40 6 0 2 -36 9 -75 14 -38 6 -75 13
-75 16 0 1 -13 3 -30 5 -16 1 -30 3 -30 4 0 3 -19 8 -60 16 -16 3 -37 8 -45
12 -8 3 -24 7 -35 8 -22 2 -51 11 -79 26 -13 8 -16 7 -11 -1 5 -8 0 -8 -16 1
-24 13 -28 15 -64 23 -11 2 -22 5 -25 6 -3 1 -9 2 -14 1 -4 -1 -14 4 -22 10
-8 6 -14 8 -14 4 0 -4 -11 0 -25 9 -14 9 -25 14 -25 11 0 -3 -10 0 -22 7 -13
7 -27 11 -32 10 -4 -2 -14 3 -22 9 -8 6 -14 8 -14 4 0 -4 -11 0 -25 9 -14 9
-25 14 -25 11 0 -3 -10 0 -22 7 -13 7 -27 13 -33 13 -14 2 -46 14 -77 31 -16
8 -28 13 -28 9 0 -3 -12 2 -27 12 -15 10 -31 18 -37 19 -25 3 -56 17 -56 26 0
5 -4 7 -9 4 -4 -3 -17 1 -27 9 -10 8 -25 15 -32 15 -8 0 -27 9 -43 21 -16 11
-29 18 -29 14 0 -3 -15 2 -32 12 -18 9 -38 18 -45 19 -7 1 -26 12 -42 23 -16
12 -34 21 -40 21 -6 0 -11 5 -11 11 0 5 -4 8 -8 5 -5 -3 -25 6 -44 19 -20 13
-38 21 -42 18 -3 -4 -6 -1 -6 6 0 7 -4 10 -9 7 -5 -3 -27 8 -50 24 -22 17 -45
30 -49 30 -5 0 -48 24 -95 54 -47 30 -88 51 -91 48 -3 -3 -6 0 -6 6 0 7 -4 11
-8 10 -12 -4 -322 203 -322 214 0 5 4 7 8 4 4 -3 28 0 53 6 24 5 53 11 64 13
29 6 78 15 95 19 8 2 30 7 48 11 37 8 36 7 10 101 l-11 40 -66 -13 c-91 -19
-113 -23 -136 -28 -11 -2 -36 -6 -55 -10 -19 -4 -46 -9 -60 -12 -14 -2 -34 -6
-45 -8 -49 -11 -75 -13 -75 -4 0 6 -4 8 -9 4 -6 -3 -13 1 -18 8 -4 7 -37 33
-72 56 -35 24 -71 51 -80 60 -9 9 -38 32 -64 50 -26 19 -47 39 -47 44 0 6 -3
8 -6 5 -3 -3 -16 4 -28 16 -13 11 -45 39 -72 61 -26 22 -58 50 -70 61 -12 12
-37 32 -54 44 -18 13 -54 44 -80 69 -58 56 -107 99 -137 118 -13 9 -20 19 -17
24 3 5 1 9 -5 9 -7 0 -199 181 -284 267 -51 53 -185 195 -232 248 -33 36 -79
87 -102 112 -40 43 -57 63 -146 172 -21 25 -55 65 -76 88 -22 23 -52 58 -67
79 -16 21 -36 46 -44 54 -34 37 -64 75 -107 138 -25 37 -56 81 -70 97 -13 17
-31 38 -39 48 -8 9 -14 19 -14 22 0 3 -8 13 -17 23 -33 35 -53 62 -53 72 0 6
-4 10 -10 10 -5 0 -10 6 -10 14 0 8 -6 21 -12 28 -7 7 -26 31 -42 53 -17 22
-33 42 -37 45 -3 3 -9 14 -13 26 -3 11 -19 35 -36 53 -16 19 -36 47 -44 65 -8
17 -23 40 -33 51 -10 11 -25 35 -32 53 -7 17 -18 32 -23 32 -5 0 -16 16 -24
36 -8 20 -24 45 -35 57 -10 11 -19 25 -19 30 0 4 -12 24 -26 43 -15 19 -23 34
-20 34 4 0 -3 15 -16 33 -28 39 -36 52 -90 147 -24 41 -47 83 -53 92 -5 9 -23
43 -40 75 -16 32 -33 60 -37 61 -5 2 -8 12 -8 22 0 10 -3 20 -7 22 -11 4 -93
170 -93 186 0 6 -4 12 -10 12 -5 0 -10 6 -10 13 0 18 -28 75 -41 82 -5 4 -7
10 -4 15 3 4 -2 13 -10 20 -7 6 -12 17 -9 24 3 8 -2 16 -11 20 -9 3 -14 10
-11 15 3 5 -8 35 -24 66 -17 31 -30 63 -30 71 0 8 -4 14 -10 14 -5 0 -10 4
-10 9 0 5 -5 22 -12 38 -6 15 -12 30 -13 33 -5 14 -19 48 -30 75 -33 77 -44
105 -38 105 3 0 -2 9 -12 20 -10 11 -15 20 -11 20 3 0 0 14 -9 30 -9 17 -13
30 -9 30 4 0 2 6 -3 13 -6 6 -16 33 -24 60 -7 26 -16 47 -20 47 -5 0 -16 34
-23 75 -2 10 -11 33 -26 70 -10 24 -23 66 -25 80 -1 6 -4 17 -7 25 -5 13 -39
124 -43 140 -1 3 -4 12 -8 20 -5 14 -14 48 -24 95 -3 11 -5 38 -6 60 0 22 -7
45 -15 50 -11 9 -27 67 -47 170 -3 11 -9 45 -16 75 -13 63 -47 268 -54 320
-35 287 -33 261 -39 544 -8 339 18 568 96 866 79 305 257 640 430 813 26 27
48 53 48 58 0 5 4 9 8 9 5 0 38 29 75 64 67 65 127 112 127 101 0 -3 23 13 51
35 28 22 56 40 63 40 7 0 21 9 31 20 10 11 26 20 35 20 10 0 23 7 30 15 7 8
16 13 20 10 5 -3 12 0 15 5 7 11 47 30 71 34 7 1 19 8 28 15 9 7 16 10 16 6 0
-4 6 -3 13 2 10 9 73 33 100 39 4 1 9 3 12 4 3 1 10 4 15 5 6 1 12 3 15 4 3 0
8 1 13 2 4 0 13 6 21 12 12 10 13 9 6 -3 -8 -13 -7 -13 8 -1 9 7 17 10 17 7 0
-4 6 -4 13 1 6 4 15 8 20 9 4 1 9 3 12 4 3 1 14 4 25 5 11 1 22 4 25 5 3 1 14
4 25 5 11 1 21 4 23 5 1 1 13 3 27 5 47 6 115 17 150 24 35 7 445 5 550 -3z"/>
<path d="M5018 8675 c-2 -3 -18 -7 -34 -9 -31 -5 -142 -34 -234 -61 -30 -9
-64 -18 -75 -20 -11 -2 -36 -10 -56 -19 -20 -8 -39 -13 -41 -10 -3 3 -22 -3
-42 -13 -33 -15 -36 -20 -30 -48 3 -16 13 -45 20 -64 15 -36 20 -36 92 -12 85
29 98 33 117 36 11 2 33 8 49 14 16 7 31 9 34 7 2 -3 16 1 31 8 24 12 82 27
121 31 9 1 26 7 38 14 11 6 25 10 29 9 4 0 21 2 36 7 27 7 28 10 22 44 -11 64
-26 91 -50 91 -12 0 -24 -2 -27 -5z"/>
<path d="M4110 8395 c-30 -13 -62 -24 -71 -25 -14 0 -396 -164 -406 -174 -6
-6 23 -71 42 -94 l18 -20 80 34 c44 19 82 33 84 30 2 -2 59 21 126 51 67 30
133 56 147 58 40 6 100 34 100 48 0 22 -45 117 -55 116 -5 0 -35 -11 -65 -24z"/>
<path d="M3310 8057 c-14 -7 -29 -17 -35 -23 -5 -6 -39 -23 -75 -39 -36 -15
-72 -34 -80 -41 -9 -7 -40 -25 -70 -39 -30 -15 -80 -41 -111 -58 -31 -18 -70
-40 -87 -50 -38 -21 -40 -35 -9 -80 12 -19 27 -42 32 -52 10 -16 12 -16 26 -2
15 14 52 35 169 93 30 15 57 31 60 35 3 5 39 24 80 44 41 20 95 47 119 60 24
13 48 26 54 28 9 3 -26 109 -42 128 -4 4 -17 2 -31 -4z"/>
<path d="M2500 7590 c-13 -11 -26 -20 -30 -20 -4 0 -17 -9 -30 -20 -13 -11
-28 -20 -34 -20 -6 0 -19 -9 -29 -20 -9 -11 -23 -20 -31 -20 -8 0 -16 -7 -20
-15 -3 -8 -12 -15 -19 -15 -8 0 -22 -9 -32 -20 -10 -11 -24 -20 -30 -20 -7 0
-15 -7 -19 -15 -3 -8 -11 -15 -18 -15 -8 0 -21 -8 -30 -17 -21 -23 -60 -53
-70 -53 -4 0 -19 -11 -34 -25 l-27 -25 27 -39 c15 -22 36 -47 47 -57 17 -15
19 -15 25 0 3 9 11 16 18 16 6 0 19 9 29 20 9 11 23 20 31 20 8 0 16 7 20 15
3 8 12 15 21 15 8 0 15 5 15 10 0 6 11 15 25 20 14 5 25 14 25 20 0 5 11 12
25 16 14 3 25 10 25 15 0 5 11 14 25 19 14 5 25 14 25 20 0 5 11 12 25 16 14
3 25 10 25 16 0 5 14 14 30 19 17 6 30 15 30 20 0 6 14 15 30 20 17 6 30 17
30 25 0 18 -22 64 -30 64 -4 0 -12 11 -18 25 -14 30 -22 31 -52 5z"/>
<path d="M1771 7052 c-13 -9 -38 -31 -57 -48 -19 -18 -51 -45 -72 -62 -20 -17
-66 -58 -102 -92 -36 -34 -93 -89 -127 -121 -35 -33 -63 -61 -63 -63 0 -5 88
-96 93 -96 2 0 39 35 83 78 44 42 110 104 147 137 38 33 83 74 101 90 18 17
47 41 64 55 37 29 39 39 14 66 -9 10 -27 31 -38 46 -20 26 -22 26 -43 10z"/>
<path d="M8782 3809 c-66 -71 -218 -223 -292 -291 -70 -64 -70 -57 -2 -136
l28 -34 207 207 c114 113 207 212 207 220 0 14 -77 85 -92 85 -5 0 -30 -23
-56 -51z"/>
<path d="M8160 3232 c-12 -9 -37 -30 -55 -47 -18 -16 -43 -37 -55 -45 -12 -8
-36 -27 -54 -42 -17 -15 -34 -28 -37 -28 -3 0 -15 -8 -27 -17 -11 -10 -30 -25
-42 -33 -12 -8 -28 -19 -34 -25 -6 -5 -31 -23 -56 -40 -76 -50 -82 -58 -71
-89 6 -14 14 -26 19 -26 4 0 13 -14 19 -31 l12 -30 32 16 c18 10 37 21 43 26
13 12 145 108 176 129 12 8 30 22 40 30 10 8 28 22 40 30 12 8 42 34 68 58 26
23 55 45 64 48 27 8 22 30 -21 84 -38 48 -39 48 -61 32z"/>
<path d="M7416 2695 c-8 -9 -29 -21 -46 -26 -16 -6 -30 -15 -30 -20 0 -5 -18
-16 -40 -25 -22 -9 -40 -20 -40 -24 0 -4 -20 -16 -45 -27 -25 -10 -45 -21 -45
-25 0 -4 -22 -17 -50 -29 -27 -12 -50 -25 -50 -29 0 -4 -29 -19 -65 -35 -36
-15 -65 -31 -65 -37 0 -11 35 -77 54 -101 13 -17 15 -17 52 0 22 10 41 21 45
25 5 7 54 35 154 87 22 12 60 35 85 51 25 16 61 38 80 47 19 10 38 23 42 29 4
7 19 15 33 18 28 7 31 22 13 63 -13 28 -51 73 -61 73 -3 0 -13 -7 -21 -15z"/>
<path d="M5787 1909 c-10 -6 -21 -9 -24 -6 -2 3 -30 -6 -60 -19 -31 -14 -58
-23 -60 -20 -3 3 -30 -6 -61 -20 -30 -13 -57 -22 -59 -20 -3 2 -21 -3 -41 -11
-20 -8 -46 -17 -57 -18 -11 -2 -33 -8 -50 -14 -16 -6 -41 -13 -55 -15 -45 -9
-63 -29 -51 -56 5 -14 12 -41 16 -61 6 -41 21 -43 86 -15 20 8 39 13 41 10 3
-3 21 2 39 9 19 8 61 22 94 32 33 10 78 24 100 33 22 8 50 16 62 17 12 2 48
15 79 29 31 14 60 24 64 21 20 -13 18 17 -7 74 -28 65 -29 66 -56 50z"/>
<path d="M8235 9189 c-199 -57 -377 -200 -457 -370 l-23 -47 -45 4 c-25 3 -55
7 -67 10 -13 2 -33 6 -45 9 -86 17 -84 16 -183 29 -16 2 -52 7 -80 11 -27 3
-60 8 -72 9 -21 3 -23 -1 -25 -50 -1 -30 -2 -61 -2 -71 -1 -9 6 -17 14 -18 8
-1 42 -5 75 -9 33 -3 71 -9 85 -12 14 -3 43 -7 65 -9 22 -3 51 -7 65 -10 14
-4 39 -8 55 -10 46 -6 100 -16 104 -21 2 -2 3 -63 2 -136 -1 -109 2 -147 19
-208 74 -262 260 -448 520 -519 104 -29 276 -29 380 0 150 41 293 132 373 235
39 50 67 68 67 44 0 -5 4 -9 9 -7 19 5 301 -251 301 -274 0 -6 5 -7 10 -4 6 3
10 1 10 -4 0 -6 4 -11 9 -11 14 0 91 75 91 89 0 7 -26 40 -57 73 -62 63 -253
233 -253 224 0 -3 -8 1 -17 9 -10 8 -26 20 -36 28 -17 12 -17 16 7 101 34 117
36 283 5 396 -71 260 -258 447 -519 519 -102 28 -284 28 -385 0z"/>
<path d="M6347 8868 c-5 -3 -17 -4 -24 -1 -12 5 -14 -4 -9 -43 2 -27 5 -59 5
-70 1 -21 2 -21 292 -20 201 2 293 6 297 13 4 7 5 38 2 69 l-5 58 -273 0
c-151 1 -279 -2 -285 -6z"/>
<path d="M9660 7526 c-25 -18 -45 -37 -44 -42 1 -16 42 -102 51 -105 4 -2 19
-29 33 -59 14 -30 28 -57 31 -60 11 -8 69 -141 69 -157 0 -7 9 -31 20 -53 11
-22 22 -55 25 -75 2 -20 7 -40 11 -46 9 -16 23 -68 48 -189 l22 -105 64 2 c34
1 65 5 68 8 3 3 -4 53 -17 113 -12 59 -23 116 -25 128 -2 11 -6 26 -10 33 -4
6 -10 23 -12 38 -3 14 -12 39 -20 55 -8 16 -12 33 -9 38 6 10 -143 340 -178
393 -12 19 -33 52 -47 75 -14 23 -27 41 -30 41 -3 0 -25 -15 -50 -33z"/>
<path d="M9962 6301 c-5 -3 -12 -55 -16 -116 -4 -60 -9 -121 -11 -135 -2 -14
-7 -50 -10 -80 -6 -51 -9 -69 -20 -127 -3 -13 -7 -33 -9 -45 -2 -13 -7 -35
-11 -49 -7 -30 -2 -35 41 -44 47 -10 48 -10 62 -18 16 -11 35 2 28 19 -3 7 -1
16 4 19 5 3 9 13 9 23 -1 31 13 117 20 132 5 8 9 37 10 64 1 28 4 52 6 56 5 9
15 103 20 202 3 58 1 89 -7 94 -14 9 -104 13 -116 5z"/>
<path d="M324 5666 c-178 -66 -284 -221 -284 -416 0 -257 183 -440 440 -440
257 0 440 183 440 440 0 197 -106 351 -287 417 -89 32 -222 32 -309 -1z"/>
<path d="M9799 5402 c-8 -1 -23 -24 -32 -50 -45 -132 -102 -265 -174 -406
l-35 -68 23 -24 c12 -13 25 -21 29 -19 4 3 15 -4 25 -15 9 -10 23 -16 30 -14
21 8 142 261 201 420 20 55 40 104 45 109 4 6 4 17 -1 25 -6 8 -10 12 -10 8 0
-4 -19 3 -42 15 -24 12 -50 21 -59 19z"/>
<path d="M145 4829 c-4 -5 -4 -9 -1 -9 3 0 -4 -26 -15 -57 -11 -32 -22 -69
-24 -83 -3 -14 -13 -55 -24 -92 -11 -38 -18 -68 -16 -68 3 0 0 -11 -5 -26 -6
-14 -13 -44 -16 -67 -3 -23 -7 -51 -9 -62 -18 -105 -17 -131 1 -132 31 -3 73
-11 83 -17 19 -12 38 24 44 81 9 76 17 122 38 203 6 25 13 55 14 67 3 22 14
57 45 152 23 68 18 82 -35 90 -3 0 -21 7 -40 15 -20 9 -37 11 -40 5z"/>
<path d="M9 3890 c-8 -6 -10 -41 -4 -136 9 -168 9 -167 18 -181 5 -7 6 -17 3
-21 -2 -4 4 -46 15 -93 12 -46 22 -93 23 -104 1 -11 6 -33 11 -48 7 -27 10
-28 49 -23 85 12 81 10 78 52 -3 49 -8 79 -22 129 -6 22 -13 54 -15 70 -3 17
-7 41 -9 55 -9 44 -19 173 -19 238 0 34 -3 62 -6 63 -39 5 -112 4 -122 -1z"/>
<path d="M273 2975 c-29 -13 -53 -30 -53 -37 0 -18 53 -123 90 -178 16 -25 38
-62 48 -82 10 -21 22 -35 25 -32 3 4 9 -5 12 -19 4 -14 13 -28 21 -31 8 -3 14
-12 14 -21 0 -8 4 -15 8 -15 5 0 30 -29 56 -65 26 -35 51 -67 55 -70 5 -2 19
5 32 16 13 12 34 28 47 36 27 19 28 38 2 60 -11 10 -20 23 -20 30 0 7 -4 13
-8 13 -9 0 -91 109 -132 175 -14 22 -31 49 -38 60 -7 11 -20 36 -28 55 -13 27
-74 130 -78 130 -1 0 -25 -11 -53 -25z"/>
<path d="M847 2226 c-20 -25 -37 -49 -37 -55 0 -5 17 -23 38 -38 20 -15 45
-36 55 -47 9 -10 17 -15 17 -11 0 5 12 -3 28 -17 24 -23 83 -64 133 -94 11 -6
28 -19 39 -29 11 -10 20 -14 20 -10 0 5 11 -2 25 -15 14 -13 25 -20 25 -15 0
5 11 -2 25 -15 14 -13 25 -20 25 -15 0 4 9 0 20 -10 39 -35 56 -29 88 29 16
30 26 58 23 63 -3 4 -19 15 -36 23 -51 25 -160 92 -166 102 -3 5 -9 9 -13 8
-4 -1 -21 10 -37 24 -16 14 -31 26 -34 26 -10 0 -100 66 -141 103 -23 20 -45
37 -51 37 -5 0 -25 -20 -46 -44z"/>
<path d="M1663 1783 c-3 -10 -12 -33 -19 -52 -18 -44 -18 -58 4 -63 9 -3 22
-6 27 -7 6 -2 19 -8 30 -14 11 -6 23 -12 28 -13 4 -1 9 -3 12 -4 3 -1 8 -3 13
-4 4 -1 17 -7 30 -14 12 -7 22 -10 22 -6 0 3 6 2 13 -4 6 -6 17 -11 22 -11 11
-1 70 -19 95 -28 8 -3 24 -8 35 -10 11 -2 27 -6 35 -10 20 -8 29 -11 64 -18
16 -3 33 -8 38 -11 11 -7 48 -15 78 -17 22 -2 26 3 31 43 3 25 9 52 13 61 10
23 -1 29 -84 45 -14 2 -32 7 -40 11 -20 8 -30 11 -64 18 -16 3 -39 11 -50 17
-12 6 -21 10 -21 9 0 -1 -7 0 -15 3 -52 17 -96 30 -102 32 -5 1 -10 3 -13 4
-3 1 -8 3 -12 4 -5 1 -19 8 -33 16 -14 7 -25 12 -25 11 0 -1 -13 3 -30 9 -54
21 -75 22 -82 3z"/>
<path d="M2549 1532 c-7 -112 -6 -115 26 -117 34 -3 120 -15 150 -22 11 -2 45
-6 75 -9 30 -2 73 -6 95 -9 22 -2 86 -7 141 -10 l101 -7 2 70 c1 49 -2 69 -11
70 -7 0 -44 3 -83 6 -38 4 -99 8 -135 11 -36 2 -85 7 -110 10 -25 3 -61 8 -80
10 -19 2 -48 6 -65 10 -16 3 -47 8 -67 10 -35 3 -38 1 -39 -23z"/>
<path d="M3904 1511 c-5 -6 -99 -10 -289 -16 -77 -2 -144 -4 -148 -4 -4 -1 -6
-31 -4 -67 3 -64 18 -91 41 -77 5 3 73 8 150 9 78 2 173 6 211 9 39 3 96 7
128 9 32 2 62 7 67 12 5 5 6 25 2 44 -4 19 -7 47 -7 62 l1 28 -74 -3 c-40 -1
-76 -4 -78 -6z"/>
</g>
</svg>
